<svg width="200" height="200" viewBox="0 0 200 200" fill="none" xmlns="http://www.w3.org/2000/svg">
  <defs>
    <linearGradient id="splash-bg" x1="32" y1="18" x2="172" y2="182" gradientUnits="userSpaceOnUse">
      <stop stop-color="#7C3AED"/>
      <stop offset="1" stop-color="#0EA5E9"/>
    </linearGradient>
    <linearGradient id="card-surface" x1="60" y1="48" x2="156" y2="170" gradientUnits="userSpaceOnUse">
      <stop stop-color="#111621"/>
      <stop offset="1" stop-color="#1F2937"/>
    </linearGradient>
    <linearGradient id="card-accent" x1="92" y1="82" x2="164" y2="152" gradientUnits="userSpaceOnUse">
      <stop stop-color="#A855F7"/>
      <stop offset="1" stop-color="#22D3EE"/>
    </linearGradient>
  </defs>
  <circle cx="100" cy="100" r="96" fill="#0B1220"/>
  <circle cx="100" cy="100" r="88" fill="url(#splash-bg)" opacity="0.16"/>
  <rect x="42" y="38" width="96" height="124" rx="16" fill="#1F2937" opacity="0.32"/>
  <rect x="54" y="34" width="96" height="124" rx="16" fill="url(#card-surface)"/>
  <rect x="64" y="46" width="96" height="116" rx="16" fill="#0B1220" stroke="#1F2937" stroke-width="2"/>
  <rect x="74" y="60" width="72" height="8" rx="4" fill="#E0E7FF" opacity="0.9"/>
  <rect x="74" y="78" width="52" height="8" rx="4" fill="#CBD5E1" opacity="0.9"/>
  <rect x="74" y="96" width="68" height="48" rx="10" fill="url(#card-accent)"/>
  <rect x="74" y="156" width="44" height="8" rx="4" fill="#E0E7FF" opacity="0.9"/>
  <rect x="124" y="156" width="28" height="8" rx="4" fill="#CBD5E1" opacity="0.9"/>
  <circle cx="144" cy="88" r="10" fill="#22D3EE" opacity="0.24"/>
  <circle cx="64" cy="132" r="8" fill="#A855F7" opacity="0.3"/>
  <circle cx="136" cy="54" r="6" fill="#38BDF8" opacity="0.4"/>
</svg>
